# xmcd
#
# Track frame offsets: 
#        150
#        25922
#        42031
#        62849
#        81385
#        93633
#        106703
#        132198
#        150037
#        162255
#        178967
#        197348
#        212794
#        228940
#        255809
#
# Disc length: 3624 seconds
#
# Revision: 0
# Processed by: cddbd v1.5.2PL0 Copyright (c) Steve Scherf et al.
# Submitted via: ExactAudioCopy v0.99pb5
#
DISCID=b40e260f
DTITLE=Brad Vickers and His Vestapolitans - Traveling Fool
DYEAR=2011
DGENRE=Blues
TTITLE0=Traveling Fool
TTITLE1=Becausw I Love That Way
TTITLE2=Diggin' My Potatoes
TTITLE3=Don't Take My Cadillac
TTITLE4=Uh Oh!
TTITLE5=No Baby, No
TTITLE6=Leave Me Be
TTITLE7=Low Down Dirty Shame
TTITLE8=Glad Rags
TTITLE9=In My Dream
TTITLE10=Fourteen Women
TTITLE11=Skeeter Song
TTITLE12=Without Moolah
TTITLE13=How Long Blues
TTITLE14=Rockabilly Rumble
EXTD=
EXTT0=
EXTT1=
EXTT2=
EXTT3=
EXTT4=
EXTT5=
EXTT6=
EXTT7=
EXTT8=
EXTT9=
EXTT10=
EXTT11=
EXTT12=
EXTT13=
EXTT14=
PLAYORDER=
